<svg xmlns="http://www.w3.org/2000/svg" viewBox="0 0 62.11 62"><defs><style>.cls-1{fill:#fff;}.cls-1,.cls-2,.cls-4{fill-rule:evenodd;}.cls-2{fill:#5ca042;}.cls-3,.cls-5{fill:none;}.cls-3{stroke:#5ca042;stroke-linecap:round;stroke-linejoin:round;stroke-width:1.44px;}.cls-4{fill:#ffa800;}.cls-5{stroke:#ffa800;stroke-width:0.48px;}</style></defs><title>payment-icon</title><path class="cls-1" d="M17.64,7.64l5.29-1.13-1.8-3.32a43.52,43.52,0,0,1,10.8-1.74,21.78,21.78,0,0,1,9,1.68L39,6.79l5.51,1.07a9.11,9.11,0,0,1-3.1,4.84,17.26,17.26,0,0,1-3.31,2.14s9.11,5.91,14.12,12.89,11.09,16,6.42,25.55-36.58,6.86-40.86,6.41S-.88,56.93,1.94,43.14s18.74-26.67,20.15-27.8.44-1.29-.79-2.36A21.84,21.84,0,0,1,18,9.32,3.45,3.45,0,0,1,17.64,7.64Z"/><path class="cls-2" d="M23.84,16c-.4.66-.71,1.36-1,2a32.69,32.69,0,0,0-2.72,11c-.16,1,0,2.13-.2,3.18a.82.82,0,0,1-1.49-.13,30.9,30.9,0,0,1,.14-4,35.67,35.67,0,0,1,2-8.89c.16-.48.4-.93.53-1.41a20.29,20.29,0,0,0-2,1.55,8,8,0,0,0-1.42,1.42,22.79,22.79,0,0,0-4.1,8.26.88.88,0,0,1-.92.64.91.91,0,0,1-.69-.77,24.68,24.68,0,0,1,1.27-3.81,3.64,3.64,0,0,0-.6.64c-1.07,1.22-2.06,2.51-3,3.81A44.43,44.43,0,0,0,3.68,40.25a18.15,18.15,0,0,0-1.21,6.59A12.25,12.25,0,0,0,3.59,51.6,10.31,10.31,0,0,0,7.72,56a21.53,21.53,0,0,0,6.45,2.39,49.57,49.57,0,0,0,6,.89c1.42.18,2.85.18,4.27.32s2.6,0,3.89.12h5.43c1.36-.11,2.73-.09,4.1-.13.83-.13,1.67,0,2.5-.18a53.08,53.08,0,0,0,7.42-1A22.26,22.26,0,0,0,54.39,56a10,10,0,0,0,5.15-7.47,12.24,12.24,0,0,0,.1-3.47,21.87,21.87,0,0,0-1.72-6.33,52.71,52.71,0,0,0-9.66-14.47c-.95-1-2-2-2.94-3a41.49,41.49,0,0,0-6.8-5.22,8.13,8.13,0,0,0-1.89-.94c-3.73,0-7.46,0-11.19,0A7.91,7.91,0,0,0,23.84,16ZM39.7,7.58c-.16.28-.35.55-.49.85-.9,1.69-1.86,3.36-2.74,5.06.72,0,1.44,0,2.17,0a1.37,1.37,0,0,0,.84-.32A14.46,14.46,0,0,0,42.07,11a6.14,6.14,0,0,0,1.53-2.7C42.31,8.05,41,7.75,39.7,7.58Zm-21.11.76a5.46,5.46,0,0,0,1.22,2.3A12.39,12.39,0,0,0,22.42,13a3.36,3.36,0,0,0,1,.55c.75-.06,1.52,0,2.27,0-.25-.5-.53-1-.79-1.48-.83-1.46-1.57-3-2.45-4.41C21.16,7.75,19.88,8.05,18.59,8.34Zm8.26-5.66a21.43,21.43,0,0,0-4.62,1C24,7,25.77,10.24,27.57,13.49c2.35,0,4.7,0,7,0Q37.3,8.61,40,3.71a8.41,8.41,0,0,0-1.64-.5,26.74,26.74,0,0,0-5.11-.7A31.37,31.37,0,0,0,26.85,2.68Zm-6.8.15A25.41,25.41,0,0,1,28.73.89c1.1,0,2.2-.05,3.31,0A12.89,12.89,0,0,1,34.19,1a24.2,24.2,0,0,1,8,1.85c0,.3-.23.52-.35.78-.4.83-.9,1.62-1.31,2.45,1.63.37,3.27.63,4.88,1.09a6.51,6.51,0,0,1-1.07,3.55,10.62,10.62,0,0,1-2.63,2.84,5.22,5.22,0,0,1,.46.48.83.83,0,0,1-.25,1c-.54.3-1.18.09-1.77.16a44.19,44.19,0,0,1,6,4.67A24,24,0,0,1,48,21.65a22.88,22.88,0,0,1,1.66,1.75,56.59,56.59,0,0,1,4.79,5.92,42.06,42.06,0,0,1,5.9,11.43,20.69,20.69,0,0,1,.86,4.18c0,1,0,1.9,0,2.85a12.41,12.41,0,0,1-2.33,6.38,14.54,14.54,0,0,1-1.65,1.77,17,17,0,0,1-4.79,2.74,40.29,40.29,0,0,1-10.42,2.17c-.72,0-1.42.18-2.14.13a9.09,9.09,0,0,1-1.88.11c-1.8.2-3.61.08-5.41.13s-3.7,0-5.54,0c-.74,0-1.48,0-2.21-.06s-1.6,0-2.38-.14a60.14,60.14,0,0,1-6.43-.68,30.79,30.79,0,0,1-7-1.92,16,16,0,0,1-4.2-2.53L3.73,54.75a11.87,11.87,0,0,1-2.67-6,20.34,20.34,0,0,1-.12-3.66,21.59,21.59,0,0,1,1.34-5.71,49.38,49.38,0,0,1,8.65-14.2c1-1.06,1.85-2.15,2.87-3.14.64-.62,1.25-1.27,1.91-1.87a10.35,10.35,0,0,0,1-.89c.95-.78,1.66-1.8,2.64-2.54a29.32,29.32,0,0,1,2.6-2.12,12.52,12.52,0,0,1-4.31-4.34,6.59,6.59,0,0,1-.84-3.09c1.61-.47,3.27-.73,4.9-1.09C21.17,5,20.58,4,20,3A.88.88,0,0,0,20.05,2.83Z"/><path class="cls-3" d="M23.84,16c-.4.66-.71,1.36-1,2a32.69,32.69,0,0,0-2.72,11c-.16,1,0,2.13-.2,3.18a.82.82,0,0,1-1.49-.13,30.9,30.9,0,0,1,.14-4,35.67,35.67,0,0,1,2-8.89c.16-.48.4-.93.53-1.41a20.29,20.29,0,0,0-2,1.55,8,8,0,0,0-1.42,1.42,22.79,22.79,0,0,0-4.1,8.26.88.88,0,0,1-.92.64.91.91,0,0,1-.69-.77,24.68,24.68,0,0,1,1.27-3.81,3.64,3.64,0,0,0-.6.64c-1.07,1.22-2.06,2.51-3,3.81A44.43,44.43,0,0,0,3.68,40.25a18.15,18.15,0,0,0-1.21,6.59A12.25,12.25,0,0,0,3.59,51.6,10.31,10.31,0,0,0,7.72,56a21.53,21.53,0,0,0,6.45,2.39,49.57,49.57,0,0,0,6,.89c1.42.18,2.85.18,4.27.32s2.6,0,3.89.12h5.43c1.36-.11,2.73-.09,4.1-.13.83-.13,1.67,0,2.5-.18a53.08,53.08,0,0,0,7.42-1A22.26,22.26,0,0,0,54.39,56a10,10,0,0,0,5.15-7.47,12.24,12.24,0,0,0,.1-3.47,21.87,21.87,0,0,0-1.72-6.33,52.71,52.71,0,0,0-9.66-14.47c-.95-1-2-2-2.94-3a41.49,41.49,0,0,0-6.8-5.22,8.13,8.13,0,0,0-1.89-.94c-3.73,0-7.46,0-11.19,0A7.91,7.91,0,0,0,23.84,16ZM39.7,7.58c-.16.28-.35.55-.49.85-.9,1.69-1.86,3.36-2.74,5.06.72,0,1.44,0,2.17,0a1.37,1.37,0,0,0,.84-.32A14.46,14.46,0,0,0,42.07,11a6.14,6.14,0,0,0,1.53-2.7C42.31,8.05,41,7.75,39.7,7.58Zm-21.11.76a5.46,5.46,0,0,0,1.22,2.3A12.39,12.39,0,0,0,22.42,13a3.36,3.36,0,0,0,1,.55c.75-.06,1.52,0,2.27,0-.25-.5-.53-1-.79-1.48-.83-1.46-1.57-3-2.45-4.41C21.16,7.75,19.88,8.05,18.59,8.34Zm8.26-5.66a21.43,21.43,0,0,0-4.62,1C24,7,25.77,10.24,27.57,13.49c2.35,0,4.7,0,7,0Q37.3,8.61,40,3.71a8.41,8.41,0,0,0-1.64-.5,26.74,26.74,0,0,0-5.11-.7A31.37,31.37,0,0,0,26.85,2.68Zm-6.8.15A25.41,25.41,0,0,1,28.73.89c1.1,0,2.2-.05,3.31,0A12.89,12.89,0,0,1,34.19,1a24.2,24.2,0,0,1,8,1.85c0,.3-.23.52-.35.78-.4.83-.9,1.62-1.31,2.45,1.63.37,3.27.63,4.88,1.09a6.51,6.51,0,0,1-1.07,3.55,10.62,10.62,0,0,1-2.63,2.84,5.22,5.22,0,0,1,.46.48.83.83,0,0,1-.25,1c-.54.3-1.18.09-1.77.16a44.19,44.19,0,0,1,6,4.67A24,24,0,0,1,48,21.65a22.88,22.88,0,0,1,1.66,1.75,56.59,56.59,0,0,1,4.79,5.92,42.06,42.06,0,0,1,5.9,11.43,20.69,20.69,0,0,1,.86,4.18c0,1,0,1.9,0,2.85a12.41,12.41,0,0,1-2.33,6.38,14.54,14.54,0,0,1-1.65,1.77,17,17,0,0,1-4.79,2.74,40.29,40.29,0,0,1-10.42,2.17c-.72,0-1.42.18-2.14.13a9.09,9.09,0,0,1-1.88.11c-1.8.2-3.61.08-5.41.13s-3.7,0-5.54,0c-.74,0-1.48,0-2.21-.06s-1.6,0-2.38-.14a60.14,60.14,0,0,1-6.43-.68,30.79,30.79,0,0,1-7-1.92,16,16,0,0,1-4.2-2.53L3.73,54.75a11.87,11.87,0,0,1-2.67-6,20.34,20.34,0,0,1-.12-3.66,21.59,21.59,0,0,1,1.34-5.71,49.38,49.38,0,0,1,8.65-14.2c1-1.06,1.85-2.15,2.87-3.14.64-.62,1.25-1.27,1.91-1.87a10.35,10.35,0,0,0,1-.89c.95-.78,1.66-1.8,2.64-2.54a29.32,29.32,0,0,1,2.6-2.12,12.52,12.52,0,0,1-4.31-4.34,6.59,6.59,0,0,1-.84-3.09c1.61-.47,3.27-.73,4.9-1.09C21.17,5,20.58,4,20,3A.88.88,0,0,0,20.05,2.83Z"/><path class="cls-4" d="M30.54,37.19v4.52h3.23a2.21,2.21,0,0,0,1.71-.78,2.51,2.51,0,0,0,.29-2.48,2,2,0,0,0-1.28-1.15,4.38,4.38,0,0,0-1.4-.11Zm-1.81-.91a.92.92,0,0,1,.91-.9h4.13a4,4,0,0,1,2.58,1.08,4.2,4.2,0,0,1,1.4,2.59,3.69,3.69,0,0,1-.57,2.4,4.31,4.31,0,0,1-3.36,2.07H30.54v1.81h4.53a.91.91,0,0,1,0,1.81H30.54v2.71a.9.9,0,0,1-1.74.33,1.42,1.42,0,0,1-.07-.61V47.14H26.87a.9.9,0,0,1,0-1.8h1.86V43.52H26.87a.91.91,0,0,1-.84-.8.9.9,0,0,1,.57-.95,1.44,1.44,0,0,1,.55-.06h1.58V36.28Z"/><path class="cls-5" d="M30.54,37.19v4.52h3.23a2.21,2.21,0,0,0,1.71-.78,2.51,2.51,0,0,0,.29-2.48,2,2,0,0,0-1.28-1.15,4.38,4.38,0,0,0-1.4-.11Zm-1.81-.91a.92.92,0,0,1,.91-.9h4.13a4,4,0,0,1,2.58,1.08,4.2,4.2,0,0,1,1.4,2.59,3.69,3.69,0,0,1-.57,2.4,4.31,4.31,0,0,1-3.36,2.07H30.54v1.81h4.53a.91.91,0,0,1,0,1.81H30.54v2.71a.9.9,0,0,1-1.74.33,1.42,1.42,0,0,1-.07-.61V47.14H26.87a.9.9,0,0,1,0-1.8h1.86V43.52H26.87a.91.91,0,0,1-.84-.8.9.9,0,0,1,.57-.95,1.44,1.44,0,0,1,.55-.06h1.58V36.28Z"/></svg>